<svg xmlns="http://www.w3.org/2000/svg" viewBox="0 0 174.5 174.5"><defs><style>.cls-1{fill:#f4a147;stroke-width:5px;}.cls-1,.cls-2,.cls-3,.cls-4,.cls-5,.cls-7,.cls-8{stroke:#000;stroke-miterlimit:10;}.cls-2,.cls-6,.cls-8{fill:#f7a41e;}.cls-2,.cls-3,.cls-4,.cls-7{stroke-width:3px;}.cls-3,.cls-5{fill:#5b4f45;}.cls-4{fill:#aa815c;}.cls-7{fill:#d3a575;}.cls-8{stroke-width:0.5px;}</style></defs><title>Asset 5</title><g id="Layer_2" data-name="Layer 2"><g id="Layer_2-2" data-name="Layer 2"><rect class="cls-1" x="2.5" y="2.5" width="169.5" height="169.5" rx="34.48" ry="34.48"/><path class="cls-2" d="M30.57,80.87,97.68,105.4h.08l35-12a.11.11,0,0,0,0-.22L67.51,69.6h-.07L30.58,80.66A.11.11,0,0,0,30.57,80.87Z"/><path class="cls-3" d="M67.47,70V27.75a0,0,0,0,1,0,0l65.55,19.41a0,0,0,0,1,0,0V93.28a0,0,0,0,1,0,0L67.49,70.06A0,0,0,0,1,67.47,70Z"/><path class="cls-4" d="M133.39,93c2.79-3.26,23-28.37,0-45.61a.18.18,0,0,0-.29.14V92.84A.18.18,0,0,0,133.39,93Z"/><path class="cls-5" d="M67.67,70.1c2.72-3,21.31-21,.7-42a.59.59,0,0,0-1,.41c0,6.94,0,37.3,0,41.5A.17.17,0,0,0,67.67,70.1Z"/><path class="cls-6" d="M33.46,81.68a29,29,0,0,1,8.78-9.2c3.7-2.45,8-4.06,11.07-7.32.81-.87,1.06-1.51,2.06-1.51.35,0,2,1,3,1,2.49,0,2.93,2.17,5.18,1.21s4.36-2.53,6.8-2.62c3.87-.15,7.37,3.51,11.15,2.69,1.29-.28,2.63-1.07,3.84-.52a4.59,4.59,0,0,1,1.55,1.51A20.29,20.29,0,0,0,95.37,73c2.78,1.13,5.72,1.79,8.58,2.68,10,3.12,29.42,8.93,26.42,17.93"/><path d="M34.75,82.44c3.43-5.37,8-8.52,13.38-11.65a44.28,44.28,0,0,0,5.71-4.05c2.25-1.81,3.78-.77,6.46.16,4.12,1.44,6.59-2,10.77-1.86,3.09.09,5.56,2.22,8.64,2.46,2.43.19,3.7-1.12,6.14.49,1.7,1.12,3,3.1,4.77,4.28a27.55,27.55,0,0,0,6.05,2.86c4.3,1.5,8.76,2.58,13.09,4C115,80.89,131,85.28,128.93,93.25a1.5,1.5,0,0,0,2.89.8c2-7.82-7.23-12.25-13-14.73a137.41,137.41,0,0,0-13.5-4.76c-3.74-1.15-7.71-2-11.2-3.77-3-1.56-4.58-4.14-7.13-6-1.61-1.2-2.69-.87-4.55-.66C78,64.58,76,62.44,72,61.87c-2.55-.36-4.24.57-6.52,1.38-2.87,1-4.95.52-7.84-.31-1.94-.55-2.33-1.22-4.26,0-1.46.89-2.75,2.77-4.22,3.77-1.22.83-2.54,1.53-3.83,2.26a35.66,35.66,0,0,0-13.15,12c-1,1.63,1.55,3.14,2.59,1.51Z"/><path class="cls-7" d="M30.25,80.86v35.68a.07.07,0,0,0,0,.07l68.25,30.18a.07.07,0,0,0,.1-.07V105.47a.07.07,0,0,0,0-.07L30.35,80.79A.07.07,0,0,0,30.25,80.86Z"/><path class="cls-4" d="M99.23,146.59,132.81,133a.43.43,0,0,0,.27-.4V93.92a.43.43,0,0,0-.57-.41L98,105.31a.43.43,0,0,0-.29.42l.91,40.47A.43.43,0,0,0,99.23,146.59Z"/><path d="M47,77.77a3.74,3.74,0,0,0,5,1.5c.42-.23,0-.88-.38-.65a3,3,0,0,1-4-1.23c-.23-.43-.87,0-.65.38Z"/><path d="M59.56,78.22a7.77,7.77,0,0,0,3.87.33c.48-.08.27-.8-.2-.72a7,7,0,0,1-3.47-.33c-.46-.16-.65.56-.2.72Z"/><path d="M84.44,82.94H87a.38.38,0,0,0,0-.75H84.44a.38.38,0,0,0,0,.75Z"/><path d="M67.83,70.69a2.81,2.81,0,0,0,2.94.76c.46-.15.26-.87-.2-.72a2.06,2.06,0,0,1-2.21-.57c-.33-.35-.86.18-.53.53Z"/><path d="M73.33,91.94A7.94,7.94,0,0,0,77,94.08a.38.38,0,0,0,.2-.72,7.18,7.18,0,0,1-3.34-2c-.34-.35-.87.18-.53.53Z"/><path d="M102.77,91.57a6.43,6.43,0,0,0,5-.84c.41-.26,0-.91-.38-.65a5.65,5.65,0,0,1-4.4.76c-.47-.11-.67.61-.2.72Z"/><path d="M99.36,100a11,11,0,0,0,3.78-.4.38.38,0,0,0-.2-.72,10.41,10.41,0,0,1-3.58.37c-.48,0-.48.72,0,.75Z"/><ellipse class="cls-8" cx="89.38" cy="91.95" rx="3.5" ry="2"/><ellipse class="cls-8" cx="89.38" cy="91.15" rx="3.5" ry="2"/><ellipse class="cls-8" cx="70.12" cy="78.85" rx="2" ry="3.5" transform="translate(-35.37 81.34) rotate(-49.71)"/><ellipse class="cls-8" cx="70.63" cy="78.24" rx="2" ry="3.5" transform="translate(-34.72 81.52) rotate(-49.71)"/><ellipse class="cls-8" cx="74.24" cy="79.92" rx="2" ry="3.5" transform="translate(-25.85 123.29) rotate(-70.53)"/><ellipse class="cls-8" cx="74.51" cy="79.17" rx="2" ry="3.5" transform="translate(-24.97 123.03) rotate(-70.53)"/></g></g></svg>