<svg xmlns="http://www.w3.org/2000/svg" viewBox="0 0 87.85 189.5"><defs><style>.cls-1,.cls-2,.cls-3,.cls-4,.cls-5,.cls-6{stroke:#000;stroke-miterlimit:10;}.cls-2{fill:#ff9d5a;}.cls-2,.cls-3,.cls-5,.cls-6{stroke-width:2px;}.cls-3{fill:#cc585e;}.cls-4{fill:none;}.cls-5{fill:#ffce76;}.cls-6{fill:#7fb1d3;}</style></defs><title>Asset 7</title><g id="Layer_2" data-name="Layer 2"><g id="Layer_2-2" data-name="Layer 2"><rect class="cls-1" x="31.82" y="172" width="24.67" height="17" rx="3.37" ry="3.37"/><path class="cls-2" d="M69.06,177H18.86A17.86,17.86,0,0,1,1,159.14V76.61a71.17,71.17,0,0,1,11-38L31.28,8.12a14.88,14.88,0,0,1,25.23.13L75.19,38.5a73.59,73.59,0,0,1,11,38.06l.68,82.5A17.79,17.79,0,0,1,69.06,177Z"/><path class="cls-3" d="M43.11,1h1.5a4,4,0,0,1,4,4V176.72a0,0,0,0,1,0,0h-9.5a0,0,0,0,1,0,0V5a4,4,0,0,1,4-4Z"/><path class="cls-4" d="M44.49,53"/><rect class="cls-5" x="11.93" y="63" width="64" height="97" rx="6.74" ry="6.74"/><path class="cls-6" d="M43.93,53c17.95,0,32.5,6.49,32.5,14.5S61.88,82,43.93,82Z"/><path class="cls-6" d="M43.93,53C26,53,11.43,59.49,11.43,67.5S26,82,43.93,82Z"/><circle cx="43.95" cy="116.5" r="15.5"/></g></g></svg>