<svg xmlns="http://www.w3.org/2000/svg" viewBox="0 0 174.5 174.5"><defs><style>.cls-1{fill:#e8cfa6;stroke-width:5px;}.cls-1,.cls-2,.cls-3{stroke:#000;}.cls-1,.cls-2,.cls-3,.cls-4{stroke-miterlimit:10;}.cls-2{fill:#5a9bcc;}.cls-3{fill:#ff1e00;stroke-width:2px;}.cls-4{fill:none;stroke:red;stroke-width:0.75px;}</style></defs><title>Asset 1</title><g id="Layer_2" data-name="Layer 2"><g id="Layer_2-2" data-name="Layer 2"><path class="cls-1" d="M172,37V137.52a34.54,34.54,0,0,1-.66,6.71c-.15.76-.32,1.5-.52,2.24A34.49,34.49,0,0,1,137.52,172H37a34.48,34.48,0,0,1-33.3-25.53c-.21-.78-.39-1.57-.55-2.37a34.79,34.79,0,0,1-.63-6.58V37A34.48,34.48,0,0,1,37,2.5H137.52A34.48,34.48,0,0,1,172,37Z"/><path class="cls-2" d="M146.79,87.2c12,11,9,29,7,36s5.16,23.22,17.55,21c-.15.76-.32,1.5-.52,2.24a34.46,34.46,0,0,1-12.61,18.63,69.38,69.38,0,0,0-18.42-4.9c-30-4-11-37-11-37s-7-12-65,2-75-37-42-50,22-26,45-26,82-15,103,0A19.91,19.91,0,0,1,172,51V61.74C163.68,71.19,138.33,79.44,146.79,87.2Z"/><polygon class="cls-3" points="96.74 87.25 119.33 100.5 109.84 106.07 87.25 92.82 64.66 106.07 55.16 100.5 77.75 87.25 55.16 74 64.66 68.43 87.25 81.68 109.84 68.43 119.33 74 96.74 87.25"/><polygon class="cls-3" points="46.67 104.67 16.2 122.26 27.27 129.05 57.83 110.53 46.67 104.67"/><path class="cls-3" d="M20.32,133.68,3.13,144.1a34.79,34.79,0,0,1-.63-6.58v-5.85l6.67-3.85Z"/><path class="cls-4" d="M15.76,164.7c8-8.45,22.42-7.95,39-15.5,11-5,37,7,52-5s55-16,55-16A32.16,32.16,0,0,0,172,125.66"/><path class="cls-4" d="M32.45,2.8a57.75,57.75,0,0,0,3.34,10.4c5,12,66-1,79,0s27,11,11,20-48,6-48,6-33-3-43,15C29.65,63.45,15.27,67.68,2.5,69.61"/></g></g></svg>