<svg xmlns="http://www.w3.org/2000/svg" viewBox="0 0 174.5 174.5"><defs><style>.cls-1{fill:#5a9bcc;stroke-width:5px;}.cls-1,.cls-2,.cls-3,.cls-4,.cls-5{stroke:#000;stroke-miterlimit:10;}.cls-2{fill:#f2616f;}.cls-2,.cls-3{stroke-width:3px;}.cls-3,.cls-4{fill:#fff;}.cls-4,.cls-5{stroke-width:2px;}.cls-5{fill:none;}</style></defs><title>Asset 4</title><g id="Layer_2" data-name="Layer 2"><g id="Layer_2-2" data-name="Layer 2"><rect class="cls-1" x="2.5" y="2.5" width="169.5" height="169.5" rx="34.48" ry="34.48"/><path class="cls-2" d="M43.75,43.79s30-22,70-12l17,103s-57-6-64,10Z"/><ellipse class="cls-3" cx="83.06" cy="56.7" rx="5.95" ry="6.77" transform="translate(-8.59 15.3) rotate(-10.01)"/><path class="cls-3" d="M80.25,70.88l12.94-2.28a.67.67,0,0,1,.61,1l-3.19,5.84a.71.71,0,0,0-.07.46l6,33.75a.71.71,0,0,0,.2.38l4.61,4.5a.66.66,0,0,1-.25,1.13l-12.52,2.21a.62.62,0,0,1-.68-.54L79.79,71.62A.62.62,0,0,1,80.25,70.88Z"/><line class="cls-3" x1="66.75" y1="144.79" x2="72.5" y2="172.13"/><line class="cls-3" x1="43.5" y1="44.13" x2="40.5" y2="33.13"/><circle class="cls-4" cx="41" cy="32.63" r="4.5"/><path class="cls-5" d="M106,20.63s23-6,25,23"/><path class="cls-5" d="M135,19.63s9,3,7,17"/><path class="cls-5" d="M125,148.63s25,3,22-17"/></g></g></svg>