<svg xmlns="http://www.w3.org/2000/svg" viewBox="0 0 174.5 174.5"><defs><style>.cls-1{fill:#f78069;}.cls-1,.cls-2,.cls-3,.cls-4,.cls-5,.cls-7,.cls-8{stroke:#000;stroke-miterlimit:10;}.cls-1,.cls-5{stroke-width:5px;}.cls-2{fill:#fff;}.cls-2,.cls-4,.cls-8{stroke-width:2px;}.cls-3{fill:#5a96cc;}.cls-4,.cls-5{fill:#cc585e;}.cls-6,.cls-7{fill:#5a9bcc;}.cls-7{stroke-width:3px;}.cls-8{fill:none;}</style></defs><title>Asset 2</title><g id="Layer_2" data-name="Layer 2"><g id="Layer_2-2" data-name="Layer 2"><path class="cls-1" d="M172,37V137.52A34.47,34.47,0,0,1,137.52,172H37A34.47,34.47,0,0,1,2.5,137.52V37A34.48,34.48,0,0,1,37,2.5H137.52A34.48,34.48,0,0,1,172,37Z"/><path class="cls-2" d="M150.24,146.47H104.86L79.43,101.85,115.76,86.2a3,3,0,0,1,3.8,1.35Z"/><polygon class="cls-3" points="106.14 129.85 93.17 105.94 114.8 96.62 127.55 121.23 106.14 129.85"/><polygon class="cls-3" points="141.59 146.47 115.26 146.47 112.34 141.09 133.97 131.78 141.59 146.47"/><path class="cls-4" d="M104.86,146.47H47.34l-24-40.91A42.36,42.36,0,0,1,18.7,74.29h0l1.54-6.46,1.2-5L23,56.36,30.23,26a3,3,0,0,1,5.52-.79Z"/><path class="cls-5" d="M98.47,117.71"/><polygon class="cls-2" points="66.74 146.97 58.57 146.47 18.7 74.29 21.74 63.97 66.74 146.97"/><path class="cls-6" d="M170.74,142c-3.93,16.12-17.34,28-33.27,28H37c-15.94,0-29.35-11.88-33.27-28Z"/><path class="cls-7" d="M3.9,142.22c1.58-5.79,6-8.73,10.13-8.66s8,2.51,11.87,4.69,7.94,4.15,12,3.23c4.8-1.08,9.05-6.1,13.9-6.24,5.35-.15,10.11,5.66,15.46,6.11s10.3-4.53,15.64-5.49c7-1.25,13.66,4.42,20.65,5.47,7.31,1.11,14.68-2.88,22-1.53,5,.93,9.86,4.39,14.93,4.15,7.29-.34,14.13-8.3,21.3-6.29,4,1.13,4.93,5.22,9,4.3"/><polyline class="cls-8" points="35.74 23.97 42.74 18.97 112.34 141.09"/><line class="cls-8" x1="54.72" y1="56.46" x2="62.56" y2="51.7"/><line class="cls-8" x1="65.72" y1="77.46" x2="73.56" y2="72.7"/><line class="cls-8" x1="90.72" y1="120.46" x2="98.56" y2="115.7"/><line class="cls-8" x1="42.72" y1="35.46" x2="50.56" y2="30.7"/></g></g></svg>