<svg xmlns="http://www.w3.org/2000/svg" viewBox="0 0 174.5 174.5"><defs><style>.cls-1{fill:#5a9bcc;}.cls-1,.cls-2,.cls-3,.cls-4,.cls-5,.cls-6,.cls-7{stroke:#000;stroke-miterlimit:10;}.cls-1,.cls-7{stroke-width:5px;}.cls-2{fill:#ffde52;}.cls-2,.cls-3,.cls-4,.cls-5{stroke-width:2px;}.cls-3{fill:#fff;}.cls-4,.cls-7{fill:#cc585e;}.cls-5{fill:#828181;}.cls-6{fill:none;}</style></defs><title>Asset 3</title><g id="Layer_2" data-name="Layer 2"><g id="Layer_2-2" data-name="Layer 2"><rect class="cls-1" x="2.5" y="2.5" width="169.5" height="169.5" rx="34.48" ry="34.48"/><path class="cls-2" d="M80.24,49.47,6.08,152.83A34.32,34.32,0,0,1,2.5,137.52V37A34.48,34.48,0,0,1,36.73,2.5Z"/><polyline class="cls-2" points="104.6 35.47 104.6 68.47 68.28 69.47"/><polyline class="cls-3" points="68.28 69.47 68.6 35.47 104.6 35.47"/><path class="cls-4" d="M60.24,67.47"/><path class="cls-4" d="M59,35.47h54.82A1.66,1.66,0,0,0,115,32.58c-7.82-7.15-30.67-23.49-57,0A1.67,1.67,0,0,0,59,35.47Z"/><path class="cls-4" d="M114.26,64.78V76.09L74.17,60.75h36.07A4,4,0,0,1,114.26,64.78Z"/><polygon class="cls-4" points="114.26 92.15 114.26 106.09 58.62 84.8 58.62 70.85 114.26 92.15"/><polygon class="cls-4" points="114.26 122.15 114.26 137.09 58.62 115.8 58.62 100.85 114.26 122.15"/><path class="cls-4" d="M58.62,162.83l21.85,8.36H62.64a4,4,0,0,1-4-4Z"/><path class="cls-4" d="M114.26,153.15v14a3.57,3.57,0,0,1-.1.87L58.62,146.77V131.85Z"/><path class="cls-3" d="M114.16,168a4,4,0,0,1-3.92,3.16H80.47l-21.85-8.36V146.77Z"/><polygon class="cls-3" points="114.26 137.09 114.26 153.15 58.62 131.85 58.62 115.8 114.26 137.09"/><polygon class="cls-3" points="114.26 106.09 114.26 122.15 58.62 100.85 58.62 84.8 114.26 106.09"/><polyline class="cls-5" points="83.74 40.97 92.74 43.97 92.74 59.97 82.54 60.75 82.54 55.96"/><path class="cls-3" d="M114.26,76.09V92.15L58.62,70.85V64.78a4,4,0,0,1,4-4H74.17Z"/><ellipse class="cls-2" cx="84.24" cy="48.97" rx="3.5" ry="8"/><polyline class="cls-6" points="59.74 60.97 59.74 50.97 64.89 50.97 111.74 50.97 111.74 60.97"/><line class="cls-6" x1="72.63" y1="60.75" x2="73.74" y2="50.97"/><line class="cls-6" x1="63.63" y1="60.75" x2="64.74" y2="50.97"/><line class="cls-6" x1="77.63" y1="60.75" x2="78.74" y2="50.97"/><line class="cls-6" x1="83.63" y1="60.75" x2="84.74" y2="50.97"/><line class="cls-6" x1="89.63" y1="60.75" x2="90.74" y2="50.97"/><line class="cls-6" x1="95.63" y1="60.75" x2="96.74" y2="50.97"/><line class="cls-6" x1="99.63" y1="60.75" x2="100.74" y2="50.97"/><line class="cls-6" x1="107.63" y1="60.75" x2="108.74" y2="50.97"/><path class="cls-7" d="M85.74,20.36"/><path class="cls-3" d="M79.06,172l.16-17.46a5.66,5.66,0,0,1,4.32-5.12,10.5,10.5,0,0,1,1.66-.37c4.23-.59,8.05,2.14,8.05,5.54V172Z"/></g></g></svg>